<?xml version="1.0" encoding="utf-8"?>
<!-- Generator: Adobe Illustrator 18.1.0, SVG Export Plug-In . SVG Version: 6.00 Build 0)  -->
<svg version="1.1" id="Layer_1" xmlns="http://www.w3.org/2000/svg" xmlns:xlink="http://www.w3.org/1999/xlink" x="0px" y="0px"
	 viewBox="0 38.7 147.5 44.4" enable-background="new 0 38.7 147.5 44.4" xml:space="preserve">
<g>
	<polygon fill="#FFFFFF" points="72.6,42.7 71,42.7 71,42.7 67.1,42.7 67.1,56 62,42.7 58.6,42.7 58.6,68.3 62.6,68.3 62.6,54.1 
		67.8,68.3 67.8,68.3 71,68.3 77.2,68.3 77.2,64.7 72.6,64.7 	"/>
	<path fill="#FFFFFF" d="M91.7,42.7l-4.5,22.9v-0.8h-5v-7.9h3.6v-3.6h-3.6v-7h5v-3.6h-9.7v25.6h9.2h0.5h4.2l0.9-5.5h3l1,5.5h4.7
		l-5.1-25.6H91.7z M92.5,59.6l1.2-9.5l1.2,9.5H92.5z"/>
	<path fill="#FFFFFF" d="M111,57.7c-0.4-0.7-0.8-1.4-1.3-1.9c-0.4-0.6-1-1.2-1.7-1.8c-0.2-0.2-0.5-0.5-0.9-0.8
		c-0.4-0.4-0.8-0.7-1.1-1c-0.3-0.3-0.5-0.6-0.8-1c-0.3-0.4-0.5-0.8-0.7-1.3c-0.1-0.5-0.2-1-0.2-1.5c0-0.6,0.1-1.1,0.4-1.6
		c0.3-0.4,0.7-0.7,1.2-0.7c0.3,0,0.5,0.1,0.7,0.3c0.2,0.2,0.4,0.4,0.4,0.7c0.1,0.3,0.2,0.6,0.2,0.9c0,0.3,0,0.7,0,1
		c0,0.1,0,0.3,0,0.5c0,0.2,0,0.4,0,0.5l4.9-0.7c0-0.2,0-0.3,0-0.4v-0.2c0-1.8-0.6-3.4-1.8-4.7c-1.1-1.3-2.5-1.9-4.2-1.9
		c-2,0-3.6,0.6-4.8,1.8c-1.2,1.2-1.8,2.9-1.8,4.9c0,0.7,0.1,1.4,0.2,2c0.1,0.6,0.4,1.2,0.5,1.6c0.2,0.4,0.5,0.9,0.9,1.4
		c0.4,0.5,0.7,0.9,1,1.1c0.3,0.3,0.7,0.7,1.1,1.1l1.4,1.4c1.8,1.8,2.8,3.6,2.8,5.4c0,1.3-0.5,2-1.4,2c-0.3,0-0.6-0.1-0.8-0.3
		c-0.2-0.2-0.4-0.4-0.5-0.7c-0.1-0.3-0.2-0.7-0.3-1.1c-0.1-0.5-0.1-0.9-0.1-1.3c0-0.4,0-0.9,0-1.4l-4.8,1c0,1.1,0.2,2,0.5,2.9
		c0.3,0.9,0.7,1.8,1.2,2.5s1.2,1.4,2,1.8c0.8,0.4,1.8,0.7,2.9,0.7c1.7,0,3.1-0.6,4.3-1.7s1.8-2.6,1.8-4.4c0-1-0.1-1.8-0.3-2.7
		C111.7,59.2,111.4,58.4,111,57.7z"/>
	<polygon fill="#FFFFFF" points="120.9,42.7 120.8,42.7 120.8,53.1 117.5,53.1 117.5,42.7 112.8,42.7 112.8,68.3 117.5,68.3 
		117.5,56.8 120.8,56.8 120.8,68.3 120.9,68.3 125.6,68.3 130.5,68.3 130.5,64.7 125.6,64.7 125.6,56.8 129,56.8 129,53.2 
		125.6,53.2 125.6,46.2 130.5,46.2 130.5,42.7 125.6,42.7 	"/>
	<path fill="#FFFFFF" d="M143.2,47.2c-0.2-1-0.6-1.8-1.2-2.5c-0.6-0.7-1.4-1.2-2.4-1.5s-2.3-0.5-3.9-0.5h-4.9v25.6h4.8
		c1,0,1.8,0,2.5-0.2c0.7-0.1,1.4-0.3,1.9-0.5c0.6-0.2,1-0.5,1.4-0.9c0.4-0.4,0.7-0.8,1-1.3c0.3-0.4,0.4-1,0.6-1.7
		c0.1-0.7,0.2-1.3,0.3-2c0-0.7,0.1-1.5,0.1-2.4V51C143.5,49.4,143.4,48.2,143.2,47.2z M138.8,62.2c0,0.4,0,0.7,0,1
		c0,0.3-0.1,0.5-0.2,0.7c-0.1,0.2-0.2,0.4-0.4,0.4s-0.3,0.2-0.6,0.2c-0.3,0-0.5,0.1-0.8,0.1c-0.3,0-0.6,0-1.1,0V46.3
		c1.1,0,1.8,0.1,2.3,0.4c0.4,0.3,0.7,0.8,0.7,1.7L138.8,62.2L138.8,62.2z"/>
	<path fill="#FFFFFF" d="M52.9,58.5C52.9,58.5,52.9,58.5,52.9,58.5c0,1,0,1.6,0,2s0,0.9-0.1,1.4c0,0.6-0.1,1-0.2,1.2
		c-0.1,0.2-0.2,0.5-0.4,0.7s-0.4,0.4-0.7,0.5s-0.6,0.1-1,0.1s-0.7,0-1-0.1c-0.3-0.1-0.5-0.3-0.7-0.5s-0.3-0.5-0.4-0.7
		c-0.1-0.2-0.2-0.7-0.2-1.2c0-0.6,0-1.1-0.1-1.5c0-0.4,0-1.1,0-2V42.7h-5.1v16c0,0.8,0,1.5,0.1,2.2c0,0.7,0.1,1.4,0.3,2.1
		s0.3,1.3,0.5,1.9c0.2,0.5,0.5,1.1,0.9,1.5c0.4,0.5,0.8,0.9,1.3,1.2c0.5,0.3,1.1,0.6,1.8,0.7c0.7,0.2,1.5,0.3,2.5,0.3
		s1.7-0.1,2.5-0.3c0.7-0.2,1.4-0.4,1.8-0.7c0.5-0.3,1-0.7,1.3-1.2c0.4-0.5,0.7-1,0.9-1.5c0.2-0.5,0.4-1.2,0.5-1.9s0.2-1.4,0.3-2.1
		c0-0.7,0.1-1.4,0.1-2.2v-16h-5.1L52.9,58.5L52.9,58.5z"/>
</g>
<path fill="#FFFFFF" d="M28.9,52.8v12c0,1.5-1,2.8-2.4,3.2l-10.5,1.8c-2.1,0.4-4-1.2-4-3.3V46.7L0,42.1v29.2
	c0,8.3,8.3,14.1,16.1,11.3l14-5.1c1.5-0.4,2.1-1.1,2.2-1.4c0.5-0.8,0.8-1.9,0.8-2.9v-6v-4.7v-8.2L28.9,52.8z"/>
<path fill="#FFFFFF" d="M28.9,59.1"/>
<path fill="#FFFFFF" d="M28.9,57.3"/>
<polygon fill="#FFFFFF" points="27.4,52.8 20.9,54.2 20.9,60.2 27.4,58.9 "/>
<polygon fill="#FFFFFF" points="27.4,45.5 20.9,46.8 20.9,52.8 27.4,51.5 "/>
<polygon fill="#FFFFFF" points="19.5,49.4 15.3,50.2 15.3,53.9 19.5,53.1 "/>
<polygon fill="#FFFFFF" points="37.3,41.7 28.9,43.4 28.9,51.2 37.3,49.5 "/>
<path fill="#FFFFFF" d="M20.9,61.6v4c0,1.1-0.8,2.2-2,2.3h-0.1l3.7-0.7l2.6-0.4c1.3-0.2,2.2-1.3,2.2-2.6v-4L20.9,61.6z"/>
<g>
	<polygon fill="#FFFFFF" points="43.4,74.2 46.5,74.2 46.5,83.1 47.7,83.1 47.7,74.2 50.8,74.2 50.8,73.2 43.4,73.2 	"/>
	<path fill="#FFFFFF" d="M64,74.1c0.7,0,1.5,0.2,2.2,0.5l0.5-1C65.9,73.2,65,73,64,73c-1,0-1.8,0.2-2.5,0.6c-0.7,0.4-1.3,1-1.7,1.8
		c-0.4,0.7-0.6,1.7-0.6,2.7c0,1.6,0.4,2.9,1.2,3.8c0.8,0.9,1.9,1.3,3.4,1.3c1,0,1.8-0.1,2.5-0.4v-1c-0.9,0.3-1.7,0.4-2.4,0.4
		c-1.1,0-2-0.4-2.6-1.1c-0.6-0.7-0.9-1.7-0.9-3c0-1.3,0.3-2.2,0.9-3C62.1,74.4,62.9,74.1,64,74.1z"/>
	<polygon fill="#FFFFFF" points="74.7,77.4 69.5,77.4 69.5,73.2 68.4,73.2 68.4,83.1 69.5,83.1 69.5,78.4 74.7,78.4 74.7,83.1 
		75.9,83.1 75.9,73.2 74.7,73.2 	"/>
	<path fill="#FFFFFF" d="M85.1,78.8c0,0.3,0,0.7,0,1.4c0,0.7,0,1.1,0,1.2h0l-5.4-8.3h-1.3v9.9h1.1v-5.6c0-0.8,0-1.7-0.1-2.7h0
		l5.4,8.3h1.3v-9.9h-1.1L85.1,78.8L85.1,78.8z"/>
	<path fill="#FFFFFF" d="M92.9,73c-1.4,0-2.6,0.4-3.4,1.3c-0.8,0.9-1.2,2.2-1.2,3.7c0,1.6,0.4,2.9,1.2,3.8c0.8,0.9,1.9,1.3,3.4,1.3
		c1.4,0,2.5-0.4,3.3-1.4c0.8-0.9,1.2-2.2,1.2-3.7c0-1.6-0.4-2.8-1.2-3.7C95.4,73.5,94.3,73,92.9,73z M95.3,81.2
		c-0.6,0.7-1.4,1.1-2.5,1.1c-1.1,0-1.9-0.4-2.5-1.1c-0.6-0.7-0.8-1.7-0.8-3s0.3-2.3,0.8-3c0.6-0.7,1.4-1.1,2.5-1.1s1.9,0.4,2.5,1.1
		c0.6,0.7,0.8,1.7,0.8,3C96.2,79.5,95.9,80.5,95.3,81.2z"/>
	<polygon fill="#FFFFFF" points="100.6,73.2 99.5,73.2 99.5,83.1 105,83.1 105,82 100.6,82 	"/>
	<path fill="#FFFFFF" d="M110.6,73c-1.4,0-2.6,0.4-3.4,1.3c-0.8,0.9-1.2,2.2-1.2,3.7c0,1.6,0.4,2.9,1.2,3.8c0.8,0.9,1.9,1.3,3.4,1.3
		c1.4,0,2.5-0.4,3.3-1.4c0.8-0.9,1.2-2.2,1.2-3.7c0-1.6-0.4-2.8-1.2-3.7C113.1,73.5,112,73,110.6,73z M113.1,81.2
		c-0.6,0.7-1.4,1.1-2.5,1.1c-1.1,0-1.9-0.4-2.5-1.1c-0.6-0.7-0.8-1.7-0.8-3s0.3-2.3,0.8-3s1.4-1.1,2.5-1.1s1.9,0.4,2.5,1.1
		c0.6,0.7,0.8,1.7,0.8,3C113.9,79.5,113.6,80.5,113.1,81.2z"/>
	<path fill="#FFFFFF" d="M121.6,78.9h2.2v3c-0.7,0.2-1.3,0.2-2,0.2c-1.3,0-2.2-0.4-2.9-1.1c-0.7-0.7-1-1.7-1-3c0-1.3,0.4-2.3,1-3
		c0.7-0.7,1.6-1.1,2.8-1.1c0.8,0,1.7,0.2,2.6,0.6l0.4-1c-0.9-0.4-1.9-0.6-2.9-0.6c-1.1,0-1.9,0.2-2.7,0.6c-0.8,0.4-1.4,1-1.8,1.8
		c-0.4,0.8-0.6,1.7-0.6,2.7c0,1.6,0.4,2.9,1.3,3.7c0.8,0.9,2,1.3,3.5,1.3c0.7,0,1.3,0,1.9-0.1c0.5-0.1,1.1-0.2,1.6-0.4v-4.8h-3.3
		L121.6,78.9L121.6,78.9z"/>
	<rect x="127.2" y="73.2" fill="#FFFFFF" width="1.1" height="9.9"/>
	<path fill="#FFFFFF" d="M143.5,78.8c-0.4-0.4-1.1-0.8-2.2-1.2c-0.6-0.2-1.1-0.4-1.4-0.6s-0.5-0.4-0.7-0.6c-0.1-0.2-0.2-0.5-0.2-0.8
		c0-0.5,0.2-0.8,0.5-1.1c0.4-0.3,0.8-0.4,1.4-0.4c0.8,0,1.6,0.2,2.4,0.5l0.4-1c-0.8-0.4-1.7-0.5-2.7-0.5c-0.9,0-1.7,0.2-2.3,0.7
		c-0.6,0.4-0.9,1.1-0.9,1.8s0.2,1.3,0.6,1.8c0.4,0.4,1.1,0.8,2,1.2c0.7,0.2,1.1,0.4,1.4,0.6c0.3,0.2,0.6,0.4,0.7,0.6
		c0.1,0.2,0.2,0.5,0.2,0.8c0,0.5-0.2,0.9-0.6,1.2s-1,0.4-1.7,0.4c-0.5,0-0.9,0-1.4-0.1c-0.5-0.1-0.9-0.2-1.3-0.4v1.1
		c0.6,0.3,1.5,0.4,2.7,0.4c1.1,0,1.9-0.3,2.5-0.7c0.6-0.5,1-1.1,1-2C144.1,79.8,143.9,79.2,143.5,78.8z"/>
	<polygon fill="#FFFFFF" points="52.2,73.2 52.2,74.2 52.2,77.4 52.2,78.4 52.2,82 52.2,83.1 53.3,83.1 57.7,83.1 57.7,82 53.3,82 
		53.3,78.4 57.7,78.4 57.7,77.4 53.3,77.4 53.3,74.2 57.7,74.2 57.7,73.2 53.3,73.2 	"/>
	<polygon fill="#FFFFFF" points="130.9,73.2 130.9,74.2 130.9,77.4 130.9,78.4 130.9,82 130.9,83.1 132.1,83.1 136.4,83.1 136.4,82 
		132.1,82 132.1,78.4 136.4,78.4 136.4,77.4 132.1,77.4 132.1,74.2 136.4,74.2 136.4,73.2 132.1,73.2 	"/>
</g>
<g>
	<path fill="#FFFFFF" d="M143.6,40.6c0-0.4,0.1-0.7,0.3-1s0.4-0.5,0.7-0.7s0.6-0.3,1-0.3c0.4,0,0.7,0.1,1,0.3s0.5,0.4,0.7,0.7
		c0.2,0.3,0.3,0.6,0.3,1s-0.1,0.7-0.3,1c-0.2,0.3-0.4,0.5-0.7,0.7s-0.7,0.3-1,0.3s-0.7-0.1-1-0.3c-0.3-0.2-0.5-0.4-0.7-0.7
		C143.7,41.3,143.6,41,143.6,40.6z M143.9,40.6c0,0.3,0.1,0.6,0.2,0.8c0.1,0.3,0.4,0.5,0.6,0.6c0.3,0.1,0.5,0.2,0.8,0.2
		s0.6-0.1,0.8-0.2c0.3-0.1,0.5-0.4,0.6-0.6c0.1-0.3,0.2-0.5,0.2-0.8c0-0.3-0.1-0.6-0.2-0.8c-0.1-0.3-0.4-0.5-0.6-0.6
		c-0.3-0.1-0.5-0.2-0.8-0.2c-0.3,0-0.6,0.1-0.8,0.2c-0.3,0.1-0.5,0.4-0.6,0.6C144,40,143.9,40.3,143.9,40.6z M146.4,40.1
		c0,0.1,0,0.3-0.1,0.4c-0.1,0.1-0.2,0.2-0.3,0.2l0.6,1h-0.4l-0.5-0.9h-0.4v0.9h-0.4v-2.3h0.7c0.3,0,0.5,0,0.6,0.2
		C146.3,39.8,146.4,39.9,146.4,40.1z M145.3,40.5h0.3c0.1,0,0.3,0,0.4-0.1c0.1,0,0.1-0.2,0.1-0.3c0-0.1,0-0.2-0.1-0.3
		c-0.1,0-0.2-0.1-0.4-0.1h-0.3V40.5z"/>
</g>
</svg>
